<mxfile host="app.diagrams.net" agent="Mozilla/5.0 (Windows NT 10.0; Win64; x64) AppleWebKit/537.36 (KHTML, like Gecko) Chrome/128.0.0.0 Safari/537.36 OPR/114.0.0.0" version="24.9.3">
  <diagram id="C5RBs43oDa-KdzZeNtuy" name="Page-1">
    <mxGraphModel dx="1062" dy="586" grid="1" gridSize="10" guides="1" tooltips="1" connect="1" arrows="1" fold="1" page="1" pageScale="1" pageWidth="827" pageHeight="1169" math="0" shadow="0">
      <root>
        <mxCell id="WIyWlLk6GJQsqaUBKTNV-0" />
        <mxCell id="WIyWlLk6GJQsqaUBKTNV-1" parent="WIyWlLk6GJQsqaUBKTNV-0" />
        <mxCell id="Br24ICafhy1wDNoyXPe8-2" value="" style="edgeStyle=orthogonalEdgeStyle;rounded=0;orthogonalLoop=1;jettySize=auto;html=1;" edge="1" parent="WIyWlLk6GJQsqaUBKTNV-1" source="Br24ICafhy1wDNoyXPe8-0" target="Br24ICafhy1wDNoyXPe8-1">
          <mxGeometry relative="1" as="geometry" />
        </mxCell>
        <mxCell id="Br24ICafhy1wDNoyXPe8-0" value="Start" style="ellipse;whiteSpace=wrap;html=1;" vertex="1" parent="WIyWlLk6GJQsqaUBKTNV-1">
          <mxGeometry x="340" y="40" width="120" height="80" as="geometry" />
        </mxCell>
        <mxCell id="Br24ICafhy1wDNoyXPe8-28" value="" style="edgeStyle=orthogonalEdgeStyle;rounded=0;orthogonalLoop=1;jettySize=auto;html=1;" edge="1" parent="WIyWlLk6GJQsqaUBKTNV-1" source="Br24ICafhy1wDNoyXPe8-1">
          <mxGeometry relative="1" as="geometry">
            <mxPoint x="400" y="260" as="targetPoint" />
          </mxGeometry>
        </mxCell>
        <mxCell id="Br24ICafhy1wDNoyXPe8-1" value="x1, x2, x3, y1, y2, y3" style="shape=internalStorage;whiteSpace=wrap;html=1;backgroundOutline=1;dx=10;dy=10;" vertex="1" parent="WIyWlLk6GJQsqaUBKTNV-1">
          <mxGeometry x="305" y="160" width="190" height="60" as="geometry" />
        </mxCell>
        <mxCell id="Br24ICafhy1wDNoyXPe8-55" value="" style="edgeStyle=orthogonalEdgeStyle;rounded=0;orthogonalLoop=1;jettySize=auto;html=1;" edge="1" parent="WIyWlLk6GJQsqaUBKTNV-1" source="Br24ICafhy1wDNoyXPe8-53" target="Br24ICafhy1wDNoyXPe8-54">
          <mxGeometry relative="1" as="geometry" />
        </mxCell>
        <mxCell id="Br24ICafhy1wDNoyXPe8-53" value="&quot;Coordinates of first vertex:&lt;span style=&quot;background-color: initial;&quot;&gt;&quot;&lt;/span&gt;" style="shape=parallelogram;perimeter=parallelogramPerimeter;whiteSpace=wrap;html=1;fixedSize=1;" vertex="1" parent="WIyWlLk6GJQsqaUBKTNV-1">
          <mxGeometry x="295" y="260" width="210" height="60" as="geometry" />
        </mxCell>
        <mxCell id="Br24ICafhy1wDNoyXPe8-54" value="Input: x1, y1" style="shape=parallelogram;perimeter=parallelogramPerimeter;whiteSpace=wrap;html=1;fixedSize=1;" vertex="1" parent="WIyWlLk6GJQsqaUBKTNV-1">
          <mxGeometry x="295" y="360" width="210" height="60" as="geometry" />
        </mxCell>
        <mxCell id="Br24ICafhy1wDNoyXPe8-56" value="" style="edgeStyle=orthogonalEdgeStyle;rounded=0;orthogonalLoop=1;jettySize=auto;html=1;" edge="1" parent="WIyWlLk6GJQsqaUBKTNV-1">
          <mxGeometry relative="1" as="geometry">
            <mxPoint x="400" y="420" as="sourcePoint" />
            <mxPoint x="400" y="460" as="targetPoint" />
          </mxGeometry>
        </mxCell>
        <mxCell id="Br24ICafhy1wDNoyXPe8-57" value="" style="edgeStyle=orthogonalEdgeStyle;rounded=0;orthogonalLoop=1;jettySize=auto;html=1;" edge="1" parent="WIyWlLk6GJQsqaUBKTNV-1" source="Br24ICafhy1wDNoyXPe8-58" target="Br24ICafhy1wDNoyXPe8-59">
          <mxGeometry relative="1" as="geometry" />
        </mxCell>
        <mxCell id="Br24ICafhy1wDNoyXPe8-58" value="&quot;Coordinates of second vertex:&lt;span style=&quot;background-color: initial;&quot;&gt;&quot;&lt;/span&gt;" style="shape=parallelogram;perimeter=parallelogramPerimeter;whiteSpace=wrap;html=1;fixedSize=1;" vertex="1" parent="WIyWlLk6GJQsqaUBKTNV-1">
          <mxGeometry x="295" y="460" width="210" height="60" as="geometry" />
        </mxCell>
        <mxCell id="Br24ICafhy1wDNoyXPe8-59" value="Input: x2, y2" style="shape=parallelogram;perimeter=parallelogramPerimeter;whiteSpace=wrap;html=1;fixedSize=1;" vertex="1" parent="WIyWlLk6GJQsqaUBKTNV-1">
          <mxGeometry x="295" y="560" width="210" height="60" as="geometry" />
        </mxCell>
        <mxCell id="Br24ICafhy1wDNoyXPe8-60" value="" style="edgeStyle=orthogonalEdgeStyle;rounded=0;orthogonalLoop=1;jettySize=auto;html=1;" edge="1" parent="WIyWlLk6GJQsqaUBKTNV-1">
          <mxGeometry relative="1" as="geometry">
            <mxPoint x="400" y="620" as="sourcePoint" />
            <mxPoint x="400" y="660" as="targetPoint" />
          </mxGeometry>
        </mxCell>
        <mxCell id="Br24ICafhy1wDNoyXPe8-61" value="" style="edgeStyle=orthogonalEdgeStyle;rounded=0;orthogonalLoop=1;jettySize=auto;html=1;" edge="1" parent="WIyWlLk6GJQsqaUBKTNV-1" source="Br24ICafhy1wDNoyXPe8-62" target="Br24ICafhy1wDNoyXPe8-63">
          <mxGeometry relative="1" as="geometry" />
        </mxCell>
        <mxCell id="Br24ICafhy1wDNoyXPe8-62" value="&quot;Coordinates of third vertex:&lt;span style=&quot;background-color: initial;&quot;&gt;&quot;&lt;/span&gt;" style="shape=parallelogram;perimeter=parallelogramPerimeter;whiteSpace=wrap;html=1;fixedSize=1;" vertex="1" parent="WIyWlLk6GJQsqaUBKTNV-1">
          <mxGeometry x="295" y="660" width="210" height="60" as="geometry" />
        </mxCell>
        <mxCell id="Br24ICafhy1wDNoyXPe8-65" value="" style="edgeStyle=orthogonalEdgeStyle;rounded=0;orthogonalLoop=1;jettySize=auto;html=1;" edge="1" parent="WIyWlLk6GJQsqaUBKTNV-1" source="Br24ICafhy1wDNoyXPe8-63" target="Br24ICafhy1wDNoyXPe8-64">
          <mxGeometry relative="1" as="geometry" />
        </mxCell>
        <mxCell id="Br24ICafhy1wDNoyXPe8-63" value="Input: x3, y3" style="shape=parallelogram;perimeter=parallelogramPerimeter;whiteSpace=wrap;html=1;fixedSize=1;" vertex="1" parent="WIyWlLk6GJQsqaUBKTNV-1">
          <mxGeometry x="295" y="760" width="210" height="60" as="geometry" />
        </mxCell>
        <mxCell id="Br24ICafhy1wDNoyXPe8-67" value="" style="edgeStyle=orthogonalEdgeStyle;rounded=0;orthogonalLoop=1;jettySize=auto;html=1;" edge="1" parent="WIyWlLk6GJQsqaUBKTNV-1" source="Br24ICafhy1wDNoyXPe8-64" target="Br24ICafhy1wDNoyXPe8-66">
          <mxGeometry relative="1" as="geometry" />
        </mxCell>
        <mxCell id="Br24ICafhy1wDNoyXPe8-64" value="&lt;div style=&quot;line-height: 22px; white-space: pre;&quot;&gt;&lt;font face=&quot;Helvetica&quot; style=&quot;&quot;&gt;double S = 0.5 * abs(x1 * (y2 - y3)&lt;/font&gt;&lt;/div&gt;&lt;div style=&quot;line-height: 22px; white-space: pre;&quot;&gt;&lt;font face=&quot;Helvetica&quot;&gt;+ x2 * (y3 - y1)&lt;/font&gt;&lt;/div&gt;&lt;div style=&quot;line-height: 22px; white-space: pre;&quot;&gt;&lt;font face=&quot;Helvetica&quot; style=&quot;&quot;&gt;+ x3 * (y1 - y2))&lt;/font&gt;&lt;/div&gt;" style="rounded=0;whiteSpace=wrap;html=1;" vertex="1" parent="WIyWlLk6GJQsqaUBKTNV-1">
          <mxGeometry x="295" y="870" width="210" height="80" as="geometry" />
        </mxCell>
        <mxCell id="Br24ICafhy1wDNoyXPe8-69" value="" style="edgeStyle=orthogonalEdgeStyle;rounded=0;orthogonalLoop=1;jettySize=auto;html=1;" edge="1" parent="WIyWlLk6GJQsqaUBKTNV-1" source="Br24ICafhy1wDNoyXPe8-66" target="Br24ICafhy1wDNoyXPe8-68">
          <mxGeometry relative="1" as="geometry" />
        </mxCell>
        <mxCell id="Br24ICafhy1wDNoyXPe8-66" value="Output: S" style="shape=parallelogram;perimeter=parallelogramPerimeter;whiteSpace=wrap;html=1;fixedSize=1;" vertex="1" parent="WIyWlLk6GJQsqaUBKTNV-1">
          <mxGeometry x="295" y="990" width="210" height="60" as="geometry" />
        </mxCell>
        <mxCell id="Br24ICafhy1wDNoyXPe8-68" value="End" style="ellipse;whiteSpace=wrap;html=1;" vertex="1" parent="WIyWlLk6GJQsqaUBKTNV-1">
          <mxGeometry x="340" y="1100" width="120" height="80" as="geometry" />
        </mxCell>
      </root>
    </mxGraphModel>
  </diagram>
</mxfile>
